<?xml version="1.0" encoding="UTF-8" standalone="no"?>
<svg width="64px" height="82px" viewBox="0 0 64 82" version="1.1" xmlns="http://www.w3.org/2000/svg" xmlns:xlink="http://www.w3.org/1999/xlink">
    <!-- Generator: Sketch 48.2 (47327) - http://www.bohemiancoding.com/sketch -->
    <title>不支持</title>
    <desc>Created with Sketch.</desc>
    <defs></defs>
    <g id="下载2" stroke="none" stroke-width="1" fill="none" fill-rule="evenodd" transform="translate(-653.000000, -427.000000)">
        <g id="不支持" transform="translate(653.000000, 427.000000)">
            <g id="不支持类型">
                <path d="M63.9417975,16.5969808 L63.9417975,81.5418759 L10.078579,81.5418759 C4.51239787,81.5418759 0,77.0400674 0,71.4869487 L0,0.100708046 L46.5706288,0.100708046 L63.9417975,16.5969808 Z" id="Fill-1" fill="#B8BECA"></path>
                <polygon id="Fill-2" fill="#B8BECA" points="46.5995027 0.100708046 46.5995027 18.3153686 63.9706714 18.3153686 63.9706714 16.5969808"></polygon>
                <polygon id="Fill-3" fill="#B8BECA" points="46.5995027 0.100708046 46.5995027 16.5969808 63.9706714 16.5969808"></polygon>
                <path d="M34.3623162,53.794541 C34.3991474,51.697364 34.5457904,50.1795985 34.7997442,49.2466881 C35.0555169,48.3123034 35.4426998,47.4874728 35.9719787,46.768 C36.4981883,46.0494345 37.6185861,44.9299648 39.3321492,43.4158284 C41.8831687,41.1621456 43.6003694,39.2461977 44.4751119,37.6717272 C45.353492,36.0972567 45.7912611,34.3766008 45.7912611,32.5124812 C45.7912611,29.2856276 44.5452504,26.5367969 42.0506146,24.2628138 C39.5559787,21.9888307 36.21627,20.8507617 32.0275098,20.8507617 C28.0732647,20.8507617 24.8925897,21.9104644 22.4862806,24.0279418 C20.0848597,26.1468935 18.6336625,29.1987556 18.1509911,33.1818268 L23.5532504,33.823387 C24.0209165,30.8498912 25.0079716,28.6640276 26.5071403,27.2628475 C28.0066501,25.8656368 30.0297549,25.3179801 32.2713464,25.3179801 C34.5856909,25.3179801 36.3947425,25.9386728 37.9929236,27.4825226 C39.589286,29.0269395 40.3871829,30.8210851 40.3871829,32.8620107 C40.3871829,33.9881716 40.1150409,35.0296153 39.56746,35.9807847 C39.0262451,36.9350161 37.8392327,38.2126927 36.0173357,39.8141548 C34.1989627,41.4165241 32.9347638,42.6373824 32.233151,43.4737808 C31.2779254,44.6203556 30.5865435,45.7579709 30.15946,46.885833 C29.575048,48.3819372 29.282444,50.1609992 29.282444,52.2196169 C29.282444,52.5700536 29.2908561,53.0963893 29.3108632,53.7963556 L34.3623162,53.794541 Z M28.988476,64.3190989 L34.9786714,64.3190989 L34.9786714,58.3416 L28.988476,58.3416 L28.988476,64.3190989 Z" id="Fill-4" fill="#FFFFFF"></path>
            </g>
        </g>
    </g>
</svg>