<?xml version="1.0" standalone="no"?>
<!DOCTYPE svg PUBLIC "-//W3C//DTD SVG 20010904//EN"
 "http://www.w3.org/TR/2001/REC-SVG-20010904/DTD/svg10.dtd">
<svg version="1.0" xmlns="http://www.w3.org/2000/svg"
 width="274.000000pt" height="317.000000pt" viewBox="0 0 274.000000 317.000000"
 preserveAspectRatio="xMidYMid meet">

<g transform="translate(0.000000,317.000000) scale(0.100000,-0.100000)"
fill="#bdadad" stroke="none">
<path d="M1284 3011 c-85 -52 -113 -153 -68 -243 14 -27 65 -70 97 -81 15 -6
17 -21 17 -116 l0 -110 -32 -5 c-18 -3 -59 -8 -91 -11 -201 -22 -409 -133
-539 -288 -52 -63 -126 -191 -158 -277 -7 -19 -34 -57 -60 -85 -25 -27 -58
-76 -73 -107 -15 -31 -35 -59 -46 -63 -44 -14 -102 -67 -128 -117 -66 -130
-10 -289 122 -350 17 -8 38 -35 60 -78 18 -36 47 -78 64 -94 17 -16 38 -52 47
-80 88 -269 339 -511 723 -699 165 -80 141 -80 306 -1 241 115 445 268 574
429 58 72 128 198 151 269 7 22 32 64 56 93 24 29 53 75 65 102 15 36 29 53
52 62 123 51 182 209 123 335 -24 51 -94 121 -131 130 -13 3 -32 29 -54 74
-18 39 -49 84 -70 102 -25 22 -47 58 -71 117 -80 192 -203 333 -371 425 -112
61 -188 83 -396 112 l-33 5 0 109 0 108 44 26 c113 66 114 239 1 303 -52 29
-137 31 -181 4z m316 -726 c36 -9 102 -35 147 -57 151 -73 292 -251 339 -428
36 -139 37 -170 4 -170 -21 0 -40 21 -75 88 -80 149 -228 240 -442 271 -119
18 -345 14 -452 -9 -302 -62 -451 -248 -455 -565 -1 -137 16 -192 72 -227 49
-31 149 -30 337 3 190 33 428 33 556 1 272 -67 364 -180 283 -348 -18 -35 -55
-85 -94 -124 -256 -257 -777 -259 -1037 -4 -256 251 -273 948 -32 1301 74 107
216 212 343 253 131 42 371 49 506 15z m-397 -667 c38 -45 7 -118 -51 -118
-45 0 -72 26 -72 68 0 42 6 54 35 70 26 15 66 6 88 -20z m201 21 c33 -15 50
-57 37 -92 -19 -49 -79 -62 -118 -25 -31 29 -30 72 2 103 27 28 42 30 79 14z
m249 -21 c55 -65 -36 -156 -101 -100 -12 9 -24 29 -28 44 -5 22 0 34 25 59 25
25 37 30 59 25 15 -4 35 -16 45 -28z"/>
<path d="M1177 964 c-4 -4 -7 -13 -7 -21 0 -11 38 -13 203 -11 172 3 202 5
202 18 0 13 -30 15 -196 18 -107 1 -198 -1 -202 -4z"/>
<circle cx="1150" cy="1570" r="80" fill="#8be793" />
<circle cx="1370" cy="1570" r="80" fill="#8be793" />
<circle cx="1590" cy="1570" r="80" fill="#8be793" />
</g>
</svg>
